<svg width="128" height="109" fill="none" xmlns="http://www.w3.org/2000/svg"><g clip-path="url(#a)"><rect opacity=".16" x="-.106" y="16.993" width="63.888" height="72.669" rx="2.142" transform="rotate(-15 -.106 16.993)" fill="#090A0B"/><rect x=".536" y="15.881" width="63.888" height="72.669" rx="2.142" transform="rotate(-15 .536 15.88)" fill="#F4F4F6"/><rect x="5.513" y="19.249" width="55.713" height="55.713" rx="1.607" transform="rotate(-15 5.513 19.249)" fill="#32A4EC"/><mask id="b" style="mask-type:alpha" maskUnits="userSpaceOnUse" x="5" y="5" width="69" height="68"><rect x="5.513" y="19.249" width="55.713" height="55.713" rx="1.071" transform="rotate(-15 5.513 19.249)" fill="#32A4EC"/></mask><g mask="url(#b)"><path d="M59.747 36.572c.278.314.44.644.487.99-.07.362-.14.724-.456 1.002l-3.189 2.665c-.534.425-.704.918-.395 1.463l1.238 3.941c.178.446.225.792-.077 1.185-.186.378-.518.54-.983.604l-4.132.914c-.58.079-.999.488-1.154 1.096l-.735 4.21c-.186.378-.371.755-.704.918-.333.163-.681.21-1.161.158l-3.962-1.34c-.612-.152-1.06.026-1.479.436L40.4 57.992a2 2 0 0 1-1.115.504c-.48-.052-.843-.12-1.122-.435l-2.67-3.16c-.425-.53-.92-.697-1.47-.387l-3.854 1.229c-.449.178-.797.225-1.192-.073-.38-.184-.658-.498-.72-.96l-.92-4.22c-.194-.56-.488-.99-1.1-1.142l-4.116-.731c-.48-.053-.875-.351-1.037-.681-.163-.33-.21-.677-.039-1.17l1.246-3.927c.271-.624.093-1.07-.433-1.468L19 38.59a1.954 1.954 0 0 1-.503-1.106c-.062-.461.124-.839.557-1.133l3.204-2.55a1.511 1.511 0 0 0 .38-1.577l-1.34-3.811c-.061-.461-.107-.807.195-1.2.185-.378.503-.656.967-.72l4.047-.667c.565-.194.999-.488 1.154-1.096l.75-4.095c.055-.477.356-.87.69-1.034.332-.162.796-.225 1.175-.042l3.847 1.356c.626.267 1.075.089 1.478-.436L38.38 17.4c.317-.278.65-.44.998-.488.349-.047.728.136 1.138.55l2.67 3.16c.41.414.905.582 1.47.388l3.955-1.36c.464-.063.813-.11 1.207.188.38.183.542.513.604.975l.774 4.005c.092.692.503 1.106 1.114 1.257l3.985.633c.38.183.759.366.921.697.163.33.225.791.155 1.153l-1.494 3.844c-.154.608.024 1.053.434 1.467l3.436 2.704Z" fill="#FFBC1F"/><path d="m67.769 31.822 6.768 25.762c.112.837-.183 1.365-.991 1.718l-30.453 8.025c-2.25-1.279-4.155-2.726-5.87-4.565a14.247 14.247 0 0 1-3.27-6.135c-.924-4.139.417-8.706 4.174-13.479 3.758-4.773 9.029-8.29 15.845-10.31 4.961-1.28 9.554-1.66 13.797-1.016Z" fill="#297A5A"/><path d="M73.538 59.3 20.3 73.356c-.842.114-1.372-.179-1.724-.983L12.72 50.657c2.182-2 4.444-3.403 7.042-4.122 6.28-1.584 12.344-2.043 18.447-1.291 6.087.632 11.942 2.27 17.396 4.57 3.505 1.471 6.769 2.974 9.929 4.613 3.143 1.52 6.047 3.072 8.54 4.315-.087.255-.296.527-.537.56Z" fill="#339970"/></g><rect opacity=".16" x="65.612" y="22.81" width="63.888" height="72.669" rx="2.142" transform="rotate(15 65.612 22.81)" fill="#090A0B"/><rect x="66.725" y="22.168" width="63.888" height="72.669" rx="2.142" transform="rotate(15 66.725 22.168)" fill="#F4F4F6"/><rect x="69.351" y="27.574" width="55.713" height="55.713" rx="1.607" transform="rotate(15 69.351 27.574)" fill="#32A4EC"/><mask id="c" style="mask-type:alpha" maskUnits="userSpaceOnUse" x="55" y="27" width="68" height="69"><rect x="69.351" y="27.574" width="55.713" height="55.713" rx="1.071" transform="rotate(15 69.351 27.574)" fill="#32A4EC"/></mask><g mask="url(#c)"><mask id="d" style="mask-type:alpha" maskUnits="userSpaceOnUse" x="53" y="26" width="72" height="71"><rect x="68.493" y="26.087" width="57.952" height="57.952" rx="1.071" transform="rotate(15 68.493 26.087)" fill="#32A4EC"/></mask><g mask="url(#d)"><path d="M110.113 68.486c2.12 2.69 4.038 4.86 5.496 6.616l-5.727 21.545c-.327.843-.856 1.168-1.709.965L53.814 83.006c-.842-.327-1.167-.856-.963-1.71l5.727-21.545c2.192-.796 4.9-1.793 8.127-2.993 3.226-1.199 6.722-2.623 10.612-4.26 1.822-.83 3.643-1.66 5.229-2.636 1.574-.853 2.754-1.492 3.665-1.907.922-.539 2.057-.684 3.158-.458 1.112.103 2.213.329 3.066.532.854.203 1.82.541 2.897 1.015 1.078.473 1.886 1.171 2.548 2.105.437.664 1.2 1.856 2.175 3.442.975 1.586 1.95 3.173 3.172 4.782 2.299 3.453 4.643 6.413 6.886 9.113Z" fill="#3F4350"/><path d="M107.726 65.703c-1.124-1.36-1.698-1.976-2.399-1.16-.837.928-2.305 1.925-4.664 3.092-2.867 1.246-5.427 1.891-7.694 2.061-2.266.17-3.886-1.234-4.87-4.088-.986-2.854-2.334-4.485-3.799-4.87-1.588-.396-3.258.08-5.121 1.292-1.864 1.212-3.285 1.71-4.13 1.382-.969-.34-1.655-1.03-2.282-2.344-.582-1.812-.803-3.466-.563-4.7.251-1.36-.387-1.592-1.685-1.083l10.335-4.535 3.296-1.835c.926-.544 1.705-.85 2.36-1.167.914-.419 2.053-.566 3.168-.464 1.116.102 2.22.328 3.077.532.856.204 1.825.543 2.894 1.143 1.081.476 1.891 1.178 2.69 2.005.437.668.988 1.472 1.627 2.661.64 1.19 1.403 2.39 2.279 3.726l5.481 8.352Z" fill="#fff"/></g></g></g><defs><clipPath id="a"><path fill="#fff" transform="translate(0 .006)" d="M0 0h128v108.987H0z"/></clipPath></defs></svg>