<svg fill="none" height="48" width="48" xmlns="http://www.w3.org/2000/svg" xmlns:xlink="http://www.w3.org/1999/xlink"><linearGradient id="a"><stop offset="0" stop-color="#0050d3"/><stop offset=".94" stop-color="#007ffc"/><stop offset="1" stop-color="#0082ff"/></linearGradient><linearGradient id="b" gradientUnits="userSpaceOnUse" x1="37.511" x2="18.721" xlink:href="#a" y1="40.238" y2="29.436"/><linearGradient id="c" gradientUnits="userSpaceOnUse" x1="10.466" x2="29.256" xlink:href="#a" y1="7.746" y2="18.543"/><rect fill="#fff" height="48" rx="24" width="48"/><path d="M10.065 31.595c-.31.507-.66 1.094-.932 1.562a.956.956 0 0 0 .32 1.3l6.211 3.822a.955.955 0 0 0 1.323-.325c.244-.416.564-.956.913-1.534 2.46-4.06 4.94-3.564 9.397-1.433l6.158 2.929a.957.957 0 0 0 1.285-.478l2.958-6.688a.955.955 0 0 0-.478-1.252c-1.3-.612-3.884-1.835-6.21-2.953-8.39-4.08-15.504-3.812-20.945 5.05z" fill="url(#b)"/><path d="M37.913 16.403c.31-.507.659-1.099.955-1.562a.956.956 0 0 0-.325-1.3l-6.21-3.822a.955.955 0 0 0-1.32.325c-.248.416-.568.955-.916 1.534-2.46 4.06-4.936 3.563-9.398 1.433l-6.177-2.915a.956.956 0 0 0-1.28.478l-2.958 6.689a.955.955 0 0 0 .478 1.251c1.3.612 3.889 1.83 6.21 2.953 8.385 4.046 15.499 3.779 20.94-5.064z" fill="url(#c)"/></svg>